HIERARCHY
ROOT Pelvis
{
	OFFSET 0.000000 0.000000 0.000000
	CHANNELS 6 Xposition Yposition Zposition Zrotation Yrotation Xrotation 
	JOINT Left_hip
	{
		OFFSET 0.067986 -0.089946 -0.007639
		CHANNELS 3 Zrotation Yrotation Xrotation
		JOINT Left_knee
		{
			OFFSET 0.036308 -0.388288 -0.004016
			CHANNELS 3 Zrotation Yrotation Xrotation
			JOINT Left_ankle
			{
				OFFSET -0.012264 -0.413250 -0.042878
				CHANNELS 3 Zrotation Yrotation Xrotation
				JOINT Left_foot
				{
					OFFSET 0.024043 -0.058563 0.118570
					CHANNELS 3 Zrotation Yrotation Xrotation
					End Site
					{
						OFFSET 0.000000 0.000000 0.000000
					}
				}
			}
		}
	}
	JOINT Right_hip
	{
		OFFSET -0.065648 -0.089374 -0.003858
		CHANNELS 3 Zrotation Yrotation Xrotation
		JOINT Right_knee
		{
			OFFSET -0.042132 -0.395021 -0.006361
			CHANNELS 3 Zrotation Yrotation Xrotation
			JOINT Right_ankle
			{
				OFFSET 0.014805 -0.413264 -0.041054
				CHANNELS 3 Zrotation Yrotation Xrotation
				JOINT Right_foot
				{
					OFFSET -0.021758 -0.049013 0.121832
					CHANNELS 3 Zrotation Yrotation Xrotation
					End Site
					{
						OFFSET 0.000000 0.000000 0.000000
					}
				}
			}
		}
	}
	JOINT Spine1
	{
		OFFSET -0.002755 0.104406 -0.022277
		CHANNELS 3 Zrotation Yrotation Xrotation
		JOINT Spine2
		{
			OFFSET 0.004136 0.129393 -0.002186
			CHANNELS 3 Zrotation Yrotation Xrotation
			JOINT Spine3
			{
				OFFSET 0.001906 0.049304 0.025578
				CHANNELS 3 Zrotation Yrotation Xrotation
				JOINT Neck
				{
					OFFSET -0.004620 0.210958 -0.044063
					CHANNELS 3 Zrotation Yrotation Xrotation
					JOINT Head
					{
						OFFSET 0.003833 0.067393 0.052435
						CHANNELS 3 Zrotation Yrotation Xrotation
						End Site
						{
							OFFSET 0.000000 0.000000 0.000000
						}
					}
				}
				JOINT Left_collar
				{
					OFFSET 0.070771 0.116689 -0.037192
					CHANNELS 3 Zrotation Yrotation Xrotation
					JOINT Left_shoulder
					{
						OFFSET 0.080652 0.031596 -0.005617
						CHANNELS 3 Zrotation Yrotation Xrotation
						JOINT Left_elbow
						{
							OFFSET 0.262654 -0.015020 -0.027939
							CHANNELS 3 Zrotation Yrotation Xrotation
							JOINT Left_wrist
							{
								OFFSET 0.250438 0.010062 -0.000990
								CHANNELS 3 Zrotation Yrotation Xrotation
								JOINT Left_palm
								{
									OFFSET 0.081198 -0.010037 -0.013706
									CHANNELS 3 Zrotation Yrotation Xrotation
									End Site
									{
										OFFSET 0.000000 0.000000 0.000000
									}
								}
							}
						}
					}
				}
				JOINT Right_collar
				{
					OFFSET -0.072972 0.115556 -0.040762
					CHANNELS 3 Zrotation Yrotation Xrotation
					JOINT Right_shoulder
					{
						OFFSET -0.082917 0.031841 -0.006673
						CHANNELS 3 Zrotation Yrotation Xrotation
						JOINT Right_elbow
						{
							OFFSET -0.252882 -0.013790 -0.020410
							CHANNELS 3 Zrotation Yrotation Xrotation
							JOINT Right_wrist
							{
								OFFSET -0.255570 0.009163 -0.005138
								CHANNELS 3 Zrotation Yrotation Xrotation
								JOINT Right_palm
								{
									OFFSET -0.080804 -0.007282 -0.010415
									CHANNELS 3 Zrotation Yrotation Xrotation
									End Site
									{
										OFFSET 0.000000 0.000000 0.000000
									}
								}
							}
						}
					}
				}
			}
		}
	}
}
MOTION
Frames: 11
Frame Time: 0.100000
0.108702 0.847445 -0.195819 178.393066 26.565659 -81.267622 14.093851 5.676123 -83.572854 -7.829053 20.952169 124.059971 -10.356613 8.604300 24.610805 14.588616 7.611724 -34.479288 -4.859903 -2.091899 -62.437067 6.199761 -6.781622 75.361140 7.898275 -13.856614 7.335887 -38.030178 0.599247 -19.848701 1.263283 -0.353092 67.962831 -3.398255 -4.563571 0.134387 2.263820 0.620132 8.417858 -13.236716 -0.924893 11.171767 16.015263 7.958647 -16.157620 -12.642792 -7.860776 4.508148 -29.614230 -1.957134 3.550955 -10.124776 -49.498717 30.732582 16.880297 -8.141511 1.761910 -12.390909 -5.210148 -1.136990 6.742929 9.051004 4.074070 43.018650 -6.808617 1.890878 32.735826 54.329469 49.824715 -12.015188 10.223785 -4.403050 15.072119 5.917549 -0.400961 
0.108785 0.846593 -0.194206 178.202627 26.509473 -80.801178 14.372990 5.200097 -84.046851 -7.991894 21.226407 124.420404 -9.236679 7.769964 23.945357 13.379679 8.002219 -34.086302 -5.544350 -3.407669 -68.782555 4.695214 -10.345527 86.879759 8.179333 -13.026736 11.122528 -37.480624 -0.416469 -21.476881 0.520021 -0.973405 68.948438 -2.761072 -4.084746 0.242895 2.303972 0.615520 8.195247 -14.162861 -0.550094 12.104168 15.256816 7.896441 -17.166533 -11.364462 -8.329818 4.513693 -30.728981 -1.326284 5.341511 -15.862235 -52.886901 37.640968 16.556243 -8.259358 -0.307207 -12.417183 -4.712784 -1.537075 6.394726 9.700383 4.128941 42.961176 -5.991190 3.168333 34.630290 53.876192 52.696576 -12.319993 10.174165 -5.165548 15.268741 5.349178 -0.445603 
0.106215 0.847856 -0.193724 177.727750 27.310802 -80.266783 13.769735 3.976341 -85.171167 -7.921414 22.099278 124.604361 -7.310186 7.389958 23.693335 11.527896 7.916572 -33.630123 -7.295493 -5.753773 -76.998458 3.485063 -12.959497 100.598381 9.839091 -11.733857 14.147832 -38.560963 -1.572067 -23.981677 -0.099428 -1.760725 69.691482 -2.376744 -4.245889 0.106540 2.329987 0.405658 8.333554 -15.761126 -1.270768 12.837712 16.177366 9.065000 -17.842004 -10.644711 -10.742929 5.103853 -30.592425 -0.481409 6.490119 -21.378158 -52.992228 43.709545 16.173120 -8.119550 -2.585766 -12.187522 -4.505400 -2.269111 5.323474 10.433321 4.105656 42.859767 -6.858590 2.989000 37.110911 54.080299 54.805934 -12.600485 10.367402 -6.518378 15.763846 4.972999 -1.427226 
0.107492 0.849357 -0.194582 177.615236 26.462827 -80.457776 14.255015 4.074281 -84.714347 -8.457688 21.898982 124.358791 -6.847766 7.368532 23.452407 12.084634 8.403273 -33.756441 -7.265996 -5.276926 -81.635221 4.403736 -14.734242 111.240033 11.437050 -7.978656 15.141224 -38.577752 -2.772991 -25.859145 -0.519677 -2.331087 71.629386 -2.199647 -3.782088 1.113924 2.425107 0.493660 8.097028 -16.227662 -0.582059 12.678294 16.196781 9.115098 -19.089808 -10.088662 -12.319364 4.690169 -28.937716 -0.966041 6.385488 -23.749922 -55.050104 45.171342 16.062670 -9.414172 -3.758726 -11.789848 -4.016916 -2.751246 4.830689 12.172894 4.294737 39.728923 -5.959503 2.985820 42.280992 55.974269 59.696134 -12.002529 11.877851 -7.155781 15.070212 3.662689 -1.000136 
0.104511 0.848171 -0.195114 176.076350 26.337458 -82.463897 13.554648 2.687190 -84.196113 -9.103092 22.268135 124.481620 -6.925789 8.007235 23.239750 15.066520 8.653220 -33.313874 -8.360642 -6.992720 -85.290502 2.150117 -15.720187 123.058277 12.004876 -8.542708 18.282142 -40.257279 -3.801168 -28.804370 -0.372629 -3.248178 73.424931 -1.583964 -4.101503 1.632765 2.855535 0.640368 8.113743 -17.719609 -1.356600 13.305281 16.619170 10.266507 -19.244503 -10.152122 -16.142701 4.893168 -25.975303 -4.367946 4.436561 -22.082182 -58.823202 41.101358 15.691276 -9.896452 -7.523552 -13.594990 -4.556664 -2.352229 4.540597 15.908836 3.319339 35.466787 -2.187147 1.141556 45.201078 62.222178 59.493226 -10.606665 12.558509 -9.222351 15.672860 3.589577 -0.994859 
0.104903 0.848516 -0.195356 176.211024 25.288806 -82.360641 13.017926 4.146652 -85.082684 -7.194605 23.922723 127.375309 -7.604083 9.258525 21.017431 18.670545 8.740254 -33.392122 -8.305431 -6.526365 -85.761637 3.950808 -16.708845 128.815641 12.359899 -6.540812 13.048446 -42.484264 -3.770489 -29.346169 0.193031 -3.044786 74.461387 -1.595935 -4.387196 2.562917 3.465404 1.275813 7.085435 -18.475139 -1.199593 12.045587 17.092387 10.458216 -18.966518 -9.187291 -21.358217 4.200198 -23.061107 -10.568518 1.654017 -17.011299 -61.953364 34.707700 13.901283 -10.199997 -7.882232 -14.963551 -5.775740 -4.994881 3.927980 22.982923 2.437096 30.445276 6.764374 -2.396901 32.436204 67.188212 40.824188 -9.319568 13.153585 -14.509765 15.465311 3.148733 -1.119092 
0.109606 0.849049 -0.198015 177.028666 23.119283 -81.795232 11.564524 5.530804 -85.965264 -5.014802 25.628073 130.933368 -9.509726 13.430652 18.542579 25.877507 6.751316 -33.698441 -6.761975 -4.233966 -86.193859 2.147703 -16.568563 132.674499 11.027426 -10.778690 10.572956 -45.282765 -1.225485 -31.537121 0.174570 -2.571491 78.408430 -2.410545 -3.985810 0.878491 4.012264 2.303510 7.259232 -18.530836 -2.282570 6.992272 18.136318 10.890565 -18.187098 -5.633124 -25.183023 2.221060 -17.750584 -18.065957 -2.295300 -12.847378 -62.633069 26.363651 15.650543 -9.496781 -10.499915 -15.210099 -6.296248 -4.891814 0.537921 30.251950 0.916402 21.178056 16.554554 -6.985509 19.787791 62.073462 19.801370 -11.403895 12.327470 -22.088260 13.348154 2.889538 1.242671 
0.108143 0.847716 -0.197515 177.407151 22.029597 -79.316707 11.288540 2.222053 -88.270041 -4.676313 25.020208 131.101769 -8.611323 16.154071 16.846069 29.314899 5.986136 -32.802642 -5.986042 -1.723707 -86.397131 2.586572 -16.690141 132.095312 9.438829 -12.817588 9.682436 -45.564446 1.221227 -32.050792 0.671937 -2.061492 79.176359 -2.810137 -4.295032 1.107077 4.531234 2.871632 6.431066 -19.610653 -4.227207 3.030582 19.807955 12.332544 -18.105334 -5.553801 -29.577934 2.078216 -14.388733 -20.323728 -4.094289 -6.759798 -67.599550 11.009583 12.554685 -8.967291 -22.188722 -17.701624 -6.641255 -4.531730 -1.344307 35.698155 0.219595 14.801694 18.373821 -9.214429 18.535956 65.568062 10.257984 -8.010865 12.735606 -32.962566 14.052523 2.807835 2.198552 
0.104163 0.846791 -0.190950 177.212042 21.858255 -78.016942 11.944417 0.483995 -90.844673 -3.749767 24.784730 132.742376 -7.993631 14.959201 16.489273 28.707155 7.133132 -32.774419 -6.399206 -0.604462 -88.863188 2.249062 -16.654925 133.482528 9.296635 -12.252161 9.029866 -46.164529 1.639842 -31.671963 0.613569 -1.896134 80.395174 -2.906122 -4.611513 1.365071 4.688909 2.801878 5.191456 -20.260937 -5.076898 -0.368096 20.358309 13.068120 -18.155691 -8.312516 -31.083369 3.400644 -18.171166 -19.228462 -1.207029 -1.694495 -76.131004 2.986215 5.293696 -10.896317 -29.863903 -20.485825 -7.599999 -5.022738 1.047539 37.435708 1.573446 16.219993 18.342005 -7.142840 20.544370 73.876014 12.403704 -1.754127 14.431572 -35.936949 15.710740 3.427279 1.469520 
0.104731 0.844690 -0.192582 176.710409 21.250484 -77.963522 12.601767 1.659565 -90.741285 -3.631713 24.596967 132.433146 -8.716507 14.674309 16.869370 29.817042 7.959542 -34.120415 -6.347372 -0.843330 -88.781447 1.176871 -16.864460 133.210699 9.846891 -13.077364 8.497103 -48.943364 1.833752 -31.543528 0.494489 -2.025303 83.064737 -3.117668 -4.563669 1.118519 4.753502 2.653930 6.089171 -20.435384 -5.827653 -3.418420 19.997792 13.618183 -18.602367 -11.127369 -29.214933 5.169737 -24.054313 -17.465867 0.307727 23.279244 -83.255288 -23.721669 -1.992458 -11.901223 -34.801374 -23.724933 -8.831630 -5.418826 4.160967 36.606445 3.278584 19.420405 18.085004 -5.895128 26.112632 79.682354 19.787584 6.282232 14.793886 -35.083200 17.003975 4.542901 0.886865 
0.104940 0.845864 -0.193101 176.477598 21.300143 -77.831983 12.803708 2.824764 -90.234250 -3.568450 24.761079 132.391275 -9.327548 14.114846 16.622624 30.198003 8.621879 -34.799389 -6.607850 -1.082731 -88.769339 0.992608 -16.992256 133.427005 10.839415 -13.010244 7.574936 -51.380478 1.823512 -30.993898 0.545269 -2.212432 84.019416 -3.192998 -4.633940 0.516495 4.735918 2.664665 7.071649 -21.451066 -5.293554 -1.332490 20.410065 13.531935 -18.468944 -12.078667 -27.811163 5.417754 -27.621891 -17.944141 0.750216 51.427736 -82.671618 -55.991152 -6.507691 -13.930656 -41.493694 -26.581120 -9.429300 -6.464298 5.159731 35.677067 3.308742 23.880678 17.543136 -4.824252 9.420102 82.769628 -0.481434 10.086946 16.324618 -42.227140 18.478229 4.524002 0.790294 
